{"title":"Divorce S01E01 Pilot 720p HBO WEBRip HEVC 2CH x265","uid":15978852,"size":213242231,"categoryP":"video","categoryS":"hd___tv_shows","magnet":"?xt=urn:btih:670feeef29d28304d9e4d57b631870495734abc8&amp;dn=Divorce+S01E01+Pilot+720p+HBO+WEBRip+HEVC+2CH+x265&amp;tr=udp%3A%2F%2Ftracker.leechers-paradise.org%3A6969&amp;tr=udp%3A%2F%2Fzer0day.ch%3A1337&amp;tr=udp%3A%2F%2Fopen.demonii.com%3A1337&amp;tr=udp%3A%2F%2Ftracker.coppersurfer.tk%3A6969&amp;tr=udp%3A%2F%2Fexodus.desync.com%3A6969","seeders":1,"leechers":2,"uploader":"nayhtut","files":1,"time":1475874415,"description":"Source: Divorce S01E01 Pilot 1080p HBO WEBRip DD5 1 H.264 monkee(939.4 MB)\r\n\r\n\r\nComplete name: Divorce.S01E01.Pilot.720p.HBO.WEBRip.HEVC.2CH.x265.mkv\r\nFormat                                   : Matroska\r\nFormat version                           : Version 4 / Version 2\r\nFile size                                : 203 MiB\r\nDuration                                 : 32mn 41s\r\nOverall bit rate                         : 870 Kbps\r\nWriting application                      : Lavf57.25.100\r\nWriting library                          : Lavf57.25.100\r\n\r\nVideo\r\n\r\nID                                       : 1\r\nFormat                                   : V_MPEGH/ISO/HEVC\r\nCodec ID                                 : V_MPEGH/ISO/HEVC\r\nDuration                                 : 32mn 41s\r\nBit rate                                 : 661 Kbps\r\nWidth                                    : 1 280 pixels\r\nHeight                                   : 720 pixels\r\nDisplay aspect ratio                     : 16:9\r\nFrame rate                               : 25.000 fps\r\nBits/(Pixel*Frame)                       : 0.029\r\nStream size                              : 154 MiB (76%)\r\nWriting library                          : Lavc57.48.101 libx265\r\nDefault                                  : Yes\r\nForced                                   : No\r\nDURATION                                 : 00:32:41.009000000\r\n\r\nAudio\r\n\r\nID                                       : 2\r\nFormat                                   : AC-3\r\nFormat/Info                              : Audio Coding 3\r\nMode extension                           : CM (complete main)\r\nFormat settings, Endianness              : Big\r\nCodec ID                                 : A_AC3\r\nDuration                                 : 32mn 41s\r\nBit rate mode                            : Constant\r\nBit rate                                 : 192 Kbps\r\nChannel(s)                               : 2 channels\r\nChannel positions                        : Front: L R\r\nSampling rate                            : 48.0 KHz\r\nBit depth                                : 16 bits\r\nCompression mode                         : Lossy\r\nStream size                              : 44.9 MiB (22%)\r\nWriting library                          : Lavc57.24.102 ac3\r\nDefault                                  : Yes\r\nForced                                   : No\r\nDURATION                                 : 00:32:41.023000000\r\n\r\nText\r\n\r\nID                                       : 3\r\nFormat                                   : ASS\r\nCodec ID                                 : S_TEXT/ASS\r\nCompression mode                         : Lossless\r\nLanguage                                 : English","torrent":{"xt":"urn:btih:670feeef29d28304d9e4d57b631870495734abc8","amp;dn":"Divorce+S01E01+Pilot+720p+HBO+WEBRip+HEVC+2CH+x265","amp;tr":["udp%3A%2F%2Ftracker.leechers-paradise.org%3A6969","udp%3A%2F%2Fzer0day.ch%3A1337","udp%3A%2F%2Fopen.demonii.com%3A1337","udp%3A%2F%2Ftracker.coppersurfer.tk%3A6969","udp%3A%2F%2Fexodus.desync.com%3A6969"],"infoHash":"670feeef29d28304d9e4d57b631870495734abc8","infoHashBuffer":{"type":"Buffer","data":[103,15,238,239,41,210,131,4,217,228,213,123,99,24,112,73,87,52,171,200]},"announce":[],"urlList":[]}}